<?xml version="1.0" standalone="no"?>
<!DOCTYPE svg PUBLIC "-//W3C//DTD SVG 20010904//EN"
 "http://www.w3.org/TR/2001/REC-SVG-20010904/DTD/svg10.dtd">
<svg version="1.0" xmlns="http://www.w3.org/2000/svg"
 width="456.000000pt" height="124.000000pt" viewBox="0 0 456.000000 124.000000"
 preserveAspectRatio="xMidYMid meet">

<g transform="translate(0.000000,124.000000) scale(0.100000,-0.100000)"
fill="#000000" stroke="none">
<path d="M2708 823 c-16 -4 -18 -23 -18 -217 l0 -213 31 -7 c88 -17 213 2 258
40 17 14 31 38 35 58 9 45 -15 102 -47 117 l-24 11 29 28 c22 23 28 38 28 72
0 87 -50 119 -187 117 -48 -1 -96 -3 -105 -6z m169 -64 c32 -12 43 -26 43 -56
0 -37 -26 -53 -86 -53 l-54 0 0 54 c0 44 4 55 18 59 30 8 50 7 79 -4z m38
-199 c8 -7 15 -27 15 -46 0 -45 -29 -64 -97 -64 l-53 0 0 66 0 67 60 -6 c34
-3 67 -11 75 -17z"/>
<path d="M3165 818 c-2 -7 -29 -98 -60 -203 -30 -104 -58 -198 -61 -207 -5
-15 1 -18 39 -18 l45 0 12 47 c16 68 24 73 95 73 71 0 78 -5 97 -73 12 -47 12
-47 55 -47 24 0 43 3 43 8 -1 4 -29 101 -63 217 l-63 210 -67 3 c-48 2 -69 -1
-72 -10z m100 -143 c10 -38 20 -76 23 -82 3 -10 -11 -13 -52 -13 -31 0 -56 1
-56 3 0 1 7 25 15 52 9 28 20 67 26 89 13 48 21 39 44 -49z"/>
<path d="M3480 610 l0 -220 40 0 40 0 0 140 c0 77 3 140 8 140 4 -1 44 -63 89
-138 l81 -137 46 -3 46 -3 0 220 0 221 -40 0 -39 0 -3 -147 -3 -146 -89 146
-89 147 -43 0 -44 0 0 -220z"/>
<path d="M3910 610 l0 -220 45 0 45 0 0 90 c0 88 0 90 24 90 20 0 35 -17 81
-90 l57 -90 49 0 50 0 -37 58 c-20 31 -52 79 -70 107 -19 27 -34 54 -34 59 0
8 30 57 118 194 14 22 14 22 -32 22 l-47 0 -57 -90 c-44 -69 -62 -90 -79 -90
-22 0 -23 3 -23 90 l0 90 -45 0 -45 0 0 -220z"/>
</g>
</svg>
